<svg xmlns="http://www.w3.org/2000/svg" viewBox="0 0 1045 1045" fill="currentColor"><path d="M599.27 290.553C599.62 290.831 593.978 296.262 594.611 297.041C600.351 304.115 604.76 307.075 612.432 311.838C603.532 324.181 582.749 346.317 571.935 356.519C528.881 397.121 467.078 437.842 405.745 436.189C374.821 435.551 345.405 422.694 323.928 400.428C330.927 428.928 348.566 445.04 372.193 460.103C357.479 492.107 365.27 509.78 382.555 537.689L399.029 564.157C394.937 571.515 386.722 583.131 381.889 590.598L344.769 647.483C339.219 655.866 330.999 667.432 326.361 676.075C347.939 676.39 370.157 676.111 391.769 676.077L506.612 675.888C513.437 665.39 520.864 655.298 528.05 645.04C539.135 629.001 550.32 613.014 561.605 597.106C578.31 573.418 595.069 548.299 612.121 525.054C604.766 513.064 596.292 501.541 588.43 489.85C573.815 468.121 559.402 446.072 544.564 424.503C558.379 424.575 572.193 424.495 586.008 424.262C590.142 431.633 596.389 440.215 601.219 447.357L623.668 480.991L701.508 596.962C709.223 608.456 717.121 619.347 724.747 631.005C736.498 648.776 749.214 666.444 760.717 684.151L717.601 684.184L666.131 605.044C655.667 588.84 644.041 569.453 633.001 554.099L577.337 633.435C559.222 658.998 540.137 684.951 522.484 710.745C489.225 710.857 455.967 710.574 422.717 709.894L263.949 708.605C269.561 699.475 275.938 690.494 281.819 681.474C296.158 659.301 310.679 637.246 325.376 615.31C336.659 598.402 346.83 581.412 358.665 564.624L355.157 558.866C338.487 531.226 324.151 504.948 332.327 471.911C282.502 432.045 278.215 374.811 308.094 321.067C317.219 343.314 325.689 357.66 343.443 374.625C362.225 392.575 387.929 403.229 414.439 401.595C466.05 398.412 516.838 362.886 553.776 328.989C567.187 316.681 577.444 303.39 589.243 290.534Z M675.951 204.42C679.407 204.225 687.207 205.866 690.802 206.473C708.078 208.901 726.762 213.824 744.04 215.077C772.118 217.114 778.325 237.99 789.984 260.293C809.86 260.162 834.54 259.633 854.149 260.504C853.769 271.097 852.608 282.262 850.342 292.598C842.078 330.295 817.547 363.082 776.508 365.27C769.7 365.714 762.844 364.04 756.151 363.202C730.31 359.968 709.221 376.005 698.585 398.638C693.649 409.139 691.419 418.234 689.044 429.346C710.851 430.193 740.117 429.828 762.183 429.138C777.984 451.776 793.601 474.546 809.033 497.443C815.072 506.225 820.689 515.025 827.061 523.598L694.025 523.708C686.413 512.39 678.711 501.134 670.921 489.939C701.103 490.375 731.291 490.346 761.473 489.853C757.544 482.371 750.041 472.234 744.987 465.047C744.965 465.026 744.947 465 744.922 464.982C742.645 463.24 661.617 464.052 653.862 464.064C654.069 440.794 653.543 423.001 660.553 400.166C672.937 359.812 705.302 330.674 748.418 329.158C764.673 328.587 776.324 334.879 791.272 326.794C806.181 318.732 810.683 305.247 815.241 290.205C791.699 289.898 769.251 295.999 757.131 271.66C753.286 263.934 748.378 256.412 744.755 248.491C731.668 248.064 716.349 246.149 703.357 244.489C696.144 243.568 688.987 241.72 681.616 241.007C670.301 246.677 659.532 253.456 648.099 259.281C650.084 263.875 663.978 289.557 669.521 285.149C673.205 275.638 664.736 260.717 676.184 252.034C682.085 247.557 693.31 247.754 697.176 254.205C703.019 263.952 701.9 278.768 700.491 289.626C698.757 298.943 693.989 309.386 685.612 314.365C658.491 330.487 634.957 304.954 621.969 283.461C599.211 245.81 613.336 240.099 644.328 222.428L675.951 204.42Z M745.117 547.55C748.681 547.01 757.413 547.116 760.896 547.164C784.31 547.474 804.371 553.65 825.005 564.594C858.617 582.671 883.728 613.297 894.866 649.802C906.179 685.776 902.491 724.793 884.638 758.018C865.876 793.756 833.479 820.405 794.79 831.926C757.358 843.18 716.999 839.236 682.456 820.948C648.97 802.95 621.665 771.046 610.795 734.46C600.201 699.901 603.987 662.521 621.302 630.792C627.234 620.443 635.451 609.61 642.751 600.247C648.978 608.458 657.488 622.367 663.184 631.244C646.252 654.94 637.272 677.27 641.188 707.21C645.213 736.052 660.394 762.165 683.469 779.93C735.014 819.534 805.587 808.169 844.337 756.557C861.526 733.241 868.832 704.094 864.677 675.426C860.462 647.341 845.245 622.082 822.385 605.227C794.916 585.087 766.531 579.041 733.073 584.137C727.018 574.082 719.401 563.249 712.538 553.72C722.673 550.282 734.477 548.498 745.117 547.55Z M285.144 548.073C294.564 547.105 340.523 551.339 342.497 559.99C341.119 563.728 328.176 583.671 325.342 588.168C273.643 572.561 218.213 595.193 193.973 643.821C181.41 669.388 179.537 698.91 188.772 725.866C212.834 796.272 302.585 826.484 362.939 781.099C380.305 768.039 391.02 752.772 400.359 733.354C412.65 733.022 425.426 733.226 437.751 733.26L435.464 740.17C414.158 795.692 368.439 832.444 308.575 837.679C226.213 844.882 152.296 782.025 147.219 699.453C145.184 661.572 158.327 624.443 183.741 596.279C210.687 566.222 244.93 550.4 285.144 548.073Z M455.787 490.077L569.087 489.98C577.181 501.652 583.704 512.467 592.516 523.667C563.249 524.628 532.91 523.842 503.51 524.113L503.585 525.728C505.205 562.69 495.911 591.787 470.987 619.301C449.521 642.149 415.022 657.843 383.482 653.205C390.979 641.479 398.567 629.81 406.242 618.202C436.514 612.955 459.039 590.671 467.529 561.183C472.213 544.913 471.765 525.32 465.679 509.456C463.253 503.131 459.134 496.097 455.827 490.072Z"/></svg>
